<svg xmlns="http://www.w3.org/2000/svg" viewBox="0 0 156.11 76.23"><defs><style>.cls-1{fill:#febdb4;}.cls-2{fill:#fee1fd;}.cls-3{fill:#1d003f;}</style></defs><g id="Layer_2" data-name="Layer 2"><g id="OBJECTS"><path class="cls-1" d="M138.68,75H15.75a1.34,1.34,0,0,1-1.35-1.35V10.24a1.35,1.35,0,0,1,1.35-1.36H138.68A1.36,1.36,0,0,1,140,10.24v63.4A1.35,1.35,0,0,1,138.68,75ZM17.11,72.28H137.32V11.6H17.11Z"/><path class="cls-2" d="M155.48,22.31a8.11,8.11,0,0,0-9.59-4.7q-18.4,5.59-36.55,12c6.79-4.74,13.52-9.57,20.25-14.39,3.29-2.36,5-6.23,3.33-10.15-1.51-3.44-5.73-6.13-9.6-4.71-16.19,6-31.67,13.47-47,21.25l3.1-1.77C87.49,15.23,82,2.8,73.13,5c-23.8,5.9-42.07,23-63.85,33.3-3.95,1.86-5,7.5-2.95,11.06A28.65,28.65,0,0,0,1,56.92c-3.2,6.76,2,13.08,9.18,12,6.52-1,12.81-3.58,18.92-6.25-1.92,2.54-2.84,5.44-1.46,8.58,1.18,2.68,4.24,5.37,7.43,5,10.75-1.27,20-6.63,29.7-11.08,2.62-1.21,5.22-2.37,7.82-3.52-.11.17-.23.34-.34.52A8.26,8.26,0,0,0,73.48,72c2.74,2.74,6.51,2.76,9.85,1.27A253.22,253.22,0,0,1,140.8,55.72c4.33-.78,6.77-6,5.68-10-1.25-4.55-5.67-6.46-10-5.68l-.23.05,15.91-7.62C155.76,30.74,157,25.74,155.48,22.31Z"/><path class="cls-3" d="M53.11,57.85c-3.1,0-5.37-6.48-5.37-9.85a4.65,4.65,0,0,0-3-4.34c-2.15-.89-5.69-.59-9.19,2.91a1.35,1.35,0,0,0,1.91,1.91c1.91-1.9,3.69-2.56,5-2.55a8.36,8.36,0,0,1-2.49,6A8.41,8.41,0,0,1,34.31,54a9.74,9.74,0,0,1-9.93-10c0-5.86,2.36-10.2,6.47-11.9,3-1.25,6.49-.79,8.42,1.14a1.35,1.35,0,1,0,1.91-1.91c-2.68-2.69-7.36-3.4-11.37-1.73-2.45,1-8.14,4.44-8.14,14.4A12.39,12.39,0,0,0,34.31,56.72a11.1,11.1,0,0,0,7.56-2.79A10.41,10.41,0,0,0,45,48c0,3.58,2.41,12.54,8.08,12.54a1.36,1.36,0,0,0,0-2.71ZM44.67,39a1.4,1.4,0,0,0,.73-.21,22.23,22.23,0,0,1,3.91-1.83,112.55,112.55,0,0,1,3.22,11.34,14.91,14.91,0,0,0-3.05,1.26,1.36,1.36,0,0,0,1.35,2.35,13.66,13.66,0,0,1,7.79-1.5A1.36,1.36,0,0,0,59,47.69a13.86,13.86,0,0,0-3.81,0,112.65,112.65,0,0,0-3.29-11.59,30.4,30.4,0,0,1,3.94-.8,1.35,1.35,0,0,0-.36-2.68,30.29,30.29,0,0,0-11.53,3.84,1.36,1.36,0,0,0-.41,1.87A1.34,1.34,0,0,0,44.67,39Zm10.5-1.39a1.36,1.36,0,0,0,0,1.92C58,42.31,60,44.69,62.37,51.78a1.36,1.36,0,0,0,1.28.93,1.24,1.24,0,0,0,.27,0A1.37,1.37,0,0,0,65,51.25c0-.16-1.13-15.33,4.4-25.68A1.35,1.35,0,0,0,67,24.3c-3.46,6.47-4.5,14.45-4.76,20.08a26,26,0,0,0-5.17-6.8A1.36,1.36,0,0,0,55.17,37.58ZM66.69,50.45c.71,2.12,2,2.65,2.89,2.71l.43,0c4,0,5.52-4.17,5.74-6.45a1.36,1.36,0,0,0-2.7-.27c0,.17-.47,4.2-3.28,4,0,0-.18-.12-.33-.42-.86-1.76-.75-5.84-.32-9.48l3.56-.68a1.35,1.35,0,1,0-.51-2.66l-2.64.5a15.58,15.58,0,0,1,1-3.78,4.57,4.57,0,0,1,4.2-.46,1.36,1.36,0,0,0,1.37-2.35c-2.22-1.29-5.75-.63-7.43.82C66.84,33.55,65.2,46,66.69,50.45Zm10.23-6.36a3.23,3.23,0,0,0,.69,3.67,3.57,3.57,0,0,0,2.6,1A9.82,9.82,0,0,0,85,47.05c-.21,2.07-.39,3.17-.39,3.19a1.34,1.34,0,0,0,1.11,1.56.9.9,0,0,0,.23,0,1.35,1.35,0,0,0,1.33-1.13,109.56,109.56,0,0,0,1-15.68,5.31,5.31,0,0,0-2.73-4.83,5.5,5.5,0,0,0-5.56.08c-1,.63-2.69,2.21-2.49,5.61a1.35,1.35,0,1,0,2.7-.16,3.25,3.25,0,0,1,1.23-3.16,2.82,2.82,0,0,1,2.8,0A2.64,2.64,0,0,1,85.61,35c0,1.43,0,2.77-.08,4C81.72,39.43,78,41.58,76.92,44.09Zm8.39-.59c-2,1.62-4.94,3.18-5.78,2.34a.55.55,0,0,1-.11-.72c.51-1.23,3-2.94,6-3.37C85.38,42.36,85.34,43,85.31,43.5Zm20.83-10.13a1.35,1.35,0,0,0,2.7-.16,3.25,3.25,0,0,1,1.23-3.16,2.85,2.85,0,0,1,2.8,0,2.66,2.66,0,0,1,1.34,2.45c0,1.43,0,2.77-.08,4-3.81.42-7.58,2.57-8.61,5.08a3.23,3.23,0,0,0,.69,3.67,3.57,3.57,0,0,0,2.6,1,9.82,9.82,0,0,0,4.81-1.75c-.21,2.07-.39,3.17-.39,3.19a1.34,1.34,0,0,0,1.11,1.56.9.9,0,0,0,.23,0,1.35,1.35,0,0,0,1.33-1.13,109.56,109.56,0,0,0,1-15.68,5.31,5.31,0,0,0-2.73-4.83,5.5,5.5,0,0,0-5.56.08C107.61,28.39,105.94,30,106.14,33.37ZM113.91,41c-2,1.62-4.94,3.18-5.78,2.34a.55.55,0,0,1-.11-.72c.51-1.23,3-2.94,6-3.37C114,39.86,113.94,40.45,113.91,41ZM92.66,48.78c1.63,0,2.81-1.7,3.65-4A5.8,5.8,0,0,0,97.47,47a2.57,2.57,0,0,0,1.87.83c2.45,0,3.3-3.57,4.86-11,1-4.74,2.22-10.63,3.85-12.27a1.35,1.35,0,0,0-1.91-1.91c-2.2,2.2-3.42,8-4.6,13.63-.62,3-1.53,7.31-2.3,8.62-.73-1.15-1.24-5.43-1.09-9.62a1.35,1.35,0,0,0-2.7-.18c-.47,4.8-1.66,9.59-2.62,10.78-.52-1.08-1.29-4.4-1.29-10.65a1.36,1.36,0,0,0-2.71,0C88.83,44.21,90.12,48.78,92.66,48.78Zm28.66,1.44a4.21,4.21,0,0,0,3-1.36c4-4.1,3.81-17.38,3.78-18.88a1.36,1.36,0,0,0-2.71-.08c-.33,3.94-1.85,9.39-3.86,9.39a.56.56,0,0,1-.51-.23c-1-1.3-.36-6,.38-8.69a1.35,1.35,0,1,0-2.61-.71c-.37,1.35-2.08,8.22.08,11a3.23,3.23,0,0,0,2.66,1.3,4.21,4.21,0,0,0,3.18-1.51c-.46,2.8-1.19,5.31-2.33,6.48a1.48,1.48,0,0,1-1.1.54.88.88,0,0,1-.7-.27,3.87,3.87,0,0,1-.69-2.29,1.36,1.36,0,0,0-1.34-1.38,1.35,1.35,0,0,0-1.37,1.34,6.44,6.44,0,0,0,1.47,4.23A3.61,3.61,0,0,0,121.32,50.22ZM124.6,53C96.25,47.71,58.35,58.36,58,58.47a1.36,1.36,0,0,0,.37,2.66,1.26,1.26,0,0,0,.38-.06c.37-.1,37.65-10.58,65.38-5.39a1.35,1.35,0,1,0,.5-2.66Z"/></g></g></svg>